<?xml version="1.0" encoding="UTF-8"?><svg id="Layer_2" xmlns="http://www.w3.org/2000/svg" viewBox="0 0 150 22.62"><defs><style>.cls-1{fill:#640d0d;}</style></defs><g id="Layer_1-2"><g><rect class="cls-1" x="15.57" y="3.27" width="2.08" height="7.78"/><polygon class="cls-1" points="13.93 22.17 13.93 22.13 13.9 22.13 13.93 22.17"/><path class="cls-1" d="M32.78,2.15c-.13-.14-.25-.27-.36-.38-.05-.14-.09-.22-.14-.24-.16-.3-.39-.57-.69-.8-.4-.3-.79-.5-1.2-.59-.41-.09-.85-.14-1.34-.14h-1.08c-.37,0-.72,.01-1.04,.03-.51,.07-.98,.26-1.41,.57-.43,.31-.76,.68-.99,1.09-.07,.14-.12,.28-.16,.42-.03,.14-.08,.29-.12,.45h-3.02c-.21-.23-.45-.51-.73-.83-.07-.07-.13-.15-.17-.24-.05-.09-.09-.17-.14-.24-.25-.35-.6-.64-1.04-.87-.44-.23-.88-.35-1.32-.35h-4.57c-.35,0-.59,.09-.73,.28-.14,.19-.21,.44-.21,.76v1.49h-1.84c0-.09,0-.19-.02-.3-.01-.1-.05-.2-.12-.3l-1.18-1.39c-.05-.21-.16-.36-.33-.45-.17-.09-.36-.14-.57-.14H1.53C.93,0,.63,.3,.63,.9v1.67H0V6.78H2.85v1.91H0v4.2H2.85v2.15H0v4.2H2.85v.83c0,.19,.03,.35,.09,.5,.06,.15,.19,.26,.4,.33l1.18,1.39c.14,.19,.36,.28,.66,.28h2.26c.56,0,.83-.28,.83-.83v-2.5h4.07v.8c0,.19,.06,.35,.17,.5,.12,.15,.24,.27,.38,.36l1.07,1.22,.03,.07c.09,.09,.2,.18,.31,.26,.12,.08,.23,.12,.35,.12h2.11c.14,0,.29-.02,.45-.05,.16-.03,.29-.12,.38-.26l.03,.1v-.03c.05,.12,.19,.19,.43,.21,.24,.02,.41,.03,.5,.03h2.15c.23,0,.44-.06,.64-.17s.29-.3,.29-.56c0-.09,0-.18,.02-.28,.01-.09-.02-.15-.09-.17l-.07-.03c-.09-.42-.18-.8-.26-1.15-.08-.35-.16-.67-.22-.97h3.15v.76c0,.21,.02,.4,.07,.57,.05,.17,.17,.3,.38,.37l1.18,1.39c.16,.16,.39,.24,.7,.24h2.22c.39,0,.63-.12,.71-.35,.08-.23,.12-.51,.12-.83l.76,.94c.16,.16,.38,.24,.66,.24,.3,0,.59,0,.88,.02s.58,.02,.88,.02c.25,0,.54-.05,.86-.16,.32-.1,.48-.32,.48-.64,0-.09-.02-.21-.07-.35v-2.22h1.08v-4.2h-1.08v-2.15h1.08v-4.2h-1.08v-1.91h1.08V2.57h-1.95c-.12-.14-.24-.28-.36-.42ZM6.12,3.27V20.08c0,.07-.02,.1-.07,.1H3.79c-.07,0-.1-.03-.1-.1V3.27H1.53s-.07-.03-.07-.1V.9s.02-.07,.07-.07h6.74c.07,0,.1,.02,.1,.07V3.16c0,.07-.03,.1-.1,.1h-2.15Zm6.22,11.78h-4.07v-2.15h4.07v2.15Zm0-6.36h-4.07v-1.91h4.07v1.91Zm7.75,1.95v.45c0,.14-.01,.28-.03,.42-.09,.53-.35,.99-.78,1.37-.43,.38-.91,.6-1.44,.64,0,.07,.09,.43,.26,1.09,.17,.66,.36,1.38,.56,2.17,.2,.79,.38,1.5,.54,2.14s.24,.97,.24,.99c.05,.05,.07,.1,.07,.17s-.06,.1-.17,.1h-2.15c-.09,0-.14-.02-.14-.07,0-.02,0-.04,.02-.05,.01-.01,.02-.03,.02-.05-.09-.23-.16-.45-.19-.64-.03-.2-.08-.41-.12-.64-.14-.69-.3-1.38-.49-2.05-.19-.67-.42-1.52-.7-2.54v5.7s.01,.07,.03,.07v.14c0,.09-.08,.14-.24,.14h-2.09l-.1-.03V1.08c0-.14,.03-.21,.1-.21h4.56c.3,0,.61,.08,.93,.24,.32,.16,.58,.37,.76,.62,.23,.28,.38,.57,.45,.87,.07,.3,.1,.63,.1,.97v7.05Zm4.1,4.41h-2.94c.48-.46,.77-1.07,.89-1.81,.05-.07,.07-.18,.07-.35h1.98v2.15Zm0-6.36h-2.02v-1.91h2.02v1.91Zm7.61,11.5h-2.19s-.07-.02-.07-.07v-6.5c-.35,0-.7,0-1.04,.02-.35,.01-.7,.02-1.04,.02v6.27c0,.17-.03,.26-.1,.26h-2.22c-.07,0-.1-.06-.1-.17V3.41c0-.63,.17-1.18,.52-1.67,.35-.49,.85-.78,1.49-.87,.32-.02,.67-.03,1.02-.03h.99c.37,0,.72,.03,1.04,.09,.32,.06,.65,.21,.97,.47,.23,.16,.43,.38,.61,.66s.26,.57,.26,.87V19.94s.03,.07,.03,.14-.06,.1-.17,.1Z"/><rect class="cls-1" x="27.45" y="3.27" width="2.08" height="7.92"/><rect class="cls-1" x="64.94" y="3.27" width="2.08" height="7.92"/><polygon class="cls-1" points="110.7 22.17 110.7 22.13 110.67 22.13 110.7 22.17"/><rect class="cls-1" x="119.28" y="3.27" width="2.08" height="7.92"/><path class="cls-1" d="M136.97,2.02l-1.15-1.39c-.14-.39-.44-.59-.9-.59h-6.01c-.6,0-.9,.3-.9,.9v1.63h-3.02c-.12-.14-.24-.28-.36-.42-.13-.14-.25-.27-.37-.38-.05-.14-.09-.22-.14-.24-.16-.3-.39-.57-.69-.8-.39-.3-.79-.5-1.2-.59-.41-.09-.85-.14-1.34-.14h-1.08c-.37,0-.72,.01-1.04,.03-.51,.07-.98,.26-1.41,.57s-.76,.68-.99,1.09c-.07,.14-.12,.28-.16,.42-.03,.14-.08,.29-.12,.45h-2.19c0-.18-.08-.36-.24-.52l-1.15-1.36c-.07-.18-.18-.35-.33-.49-.15-.14-.32-.21-.5-.21h-2.26c-.16,0-.33,.08-.5,.23s-.3,.3-.36,.43l-.03-.03-.14,.42-.32-.42c-.14-.42-.44-.63-.91-.63h-2.28c-.61,0-.91,.31-.91,.94v1.63h-22.79c-.05-.3-.08-.49-.1-.56-.23-.35-.43-.64-.59-.89-.16-.24-.34-.45-.53-.61s-.43-.28-.69-.36-.6-.12-1.02-.12h-1.8c-.3,0-.48,.09-.55,.26-.07,.17-.1,.39-.1,.64v1.63h-5.14c-.12-.14-.24-.28-.36-.42-.13-.14-.25-.27-.37-.38-.05-.14-.09-.22-.14-.24-.16-.3-.39-.57-.69-.8-.39-.3-.79-.5-1.2-.59-.41-.09-.85-.14-1.34-.14h-1.08c-.37,0-.72,.01-1.04,.03-.51,.07-.98,.26-1.41,.57s-.76,.68-.99,1.09c-.07,.14-.12,.28-.16,.42-.03,.14-.08,.29-.12,.45h-1.91c0-.25-.09-.47-.28-.66l-1.1-1.29c-.05-.23-.15-.39-.31-.47-.16-.08-.35-.12-.55-.12h-2.21c-.39,0-.64,.1-.76,.31-.12,.21-.17,.48-.17,.8-.09-.07-.17-.15-.23-.23s-.12-.17-.19-.26c-.14-.42-.44-.62-.9-.62h-2.29c-.6,0-.9,.3-.9,.9v1.63h-1.74c0-.25-.08-.46-.24-.63l-1.15-1.29c-.05-.21-.15-.36-.31-.45-.16-.09-.35-.14-.56-.14h-2.9c-.21,.65-.41,1.3-.61,1.95-.2,.65-.39,1.3-.58,1.95l-.42-1.46-1.35-1.67c-.02-.14-.14-.3-.35-.49-.21-.19-.39-.28-.55-.28h-2.24c-.6,0-.9,.31-.9,.94v1.56h-.94V6.78h.94v1.91h-.94v4.2h.94v2.15h-.94v4.2h.94v.9c0,.19,.03,.35,.09,.5,.06,.15,.18,.26,.36,.33l1.21,1.36c.14,.16,.36,.24,.66,.24h2.24c.55,0,.83-.28,.83-.83v-3.34c.07,.07,.17,.19,.3,.36,.13,.17,.29,.33,.47,.47h0l.03,.03h0s0,0,0,0h-.03c.19,.19,.37,.28,.56,.28,0,.21,0,.48-.02,.8-.01,.32,.11,.54,.37,.66l1.26,1.39c.09,.09,.21,.15,.35,.16,.14,.01,.26,.02,.35,.02h2.31c.56,0,.84-.28,.84-.83v-2.5h3.47c.07,.21,.16,.41,.26,.61,.1,.2,.2,.4,.3,.61,.05,.14,.09,.26,.12,.35,.03,.09,.13,.16,.3,.21l1.11,1.29c.18,.19,.4,.28,.66,.28h2.36c.21,0,.39-.03,.54-.09,.15-.06,.25-.21,.3-.47,.42-.76,.76-1.69,1.04-2.78h3.02v.76c0,.21,.02,.4,.07,.57,.05,.17,.17,.3,.38,.37l1.18,1.39c.16,.16,.39,.24,.69,.24h2.22c.39,0,.63-.12,.71-.35s.12-.51,.12-.83l.76,.94c.16,.16,.38,.24,.66,.24,.3,0,.59,0,.88,.02s.58,.02,.88,.02c.25,0,.54-.05,.86-.16,.32-.1,.48-.32,.48-.64,0-.09-.02-.21-.07-.35v-2.22h1.08v-.02h.93v.84c0,.16,.02,.39,.05,.68s.17,.44,.4,.44c.28,.33,.52,.58,.73,.75s.42,.31,.64,.42c.22,.11,.47,.17,.74,.19,.28,.02,.63,.03,1.07,.03,.37,0,.74-.01,1.12-.03,.38-.02,.74-.1,1.09-.24,.62-.28,1.07-.69,1.33-1.24s.41-1.16,.43-1.83h21.89v.02h.94v.87c0,.19,.03,.35,.09,.5,.06,.15,.18,.26,.37,.33l1.19,1.39c.14,.16,.36,.24,.66,.24h2.27c.28,0,.48-.06,.59-.17,.12-.12,.19-.27,.23-.45,.03-.19,.05-.39,.03-.61-.01-.22-.02-.43-.02-.64,.05,.05,.09,.08,.14,.1,.05,.02,.08,.06,.1,.1l1.04,1.22-.07-.1,.1,.1c.07,.09,.17,.19,.3,.3,.13,.1,.26,.16,.4,.16h2.22c.23,0,.43-.1,.59-.3s.24-.4,.24-.61c0-.05-.06-.3-.19-.75s-.28-1.01-.47-1.69h2.22v.76c0,.21,.02,.4,.07,.57,.05,.17,.17,.3,.38,.37l1.18,1.39c.16,.16,.39,.24,.69,.24h2.22c.39,0,.63-.12,.71-.35s.12-.51,.12-.83l.76,.94c.16,.16,.38,.24,.66,.24,.3,0,.59,0,.88,.02s.58,.02,.88,.02c.25,0,.54-.05,.86-.16,.32-.1,.48-.32,.48-.64,0-.09-.02-.21-.07-.35v-2.22h2.15v.87c0,.19,.03,.35,.09,.5,.06,.15,.18,.26,.36,.33l1.18,1.39c.14,.16,.36,.24,.66,.24h2.29c.56,0,.83-.28,.83-.83v-2.5h4.62v-4.2h-4.62v-.9h2.33c.56,0,.83-.28,.83-.83v-.42h1.46v-4.2h-3.02c-.21-.16-.46-.24-.76-.23-.3,.01-.58,.02-.83,.02v-1.7h4.62V2.57h-.9c0-.23-.06-.42-.17-.56ZM46.04,20.12s-.03,.07-.1,.07h-2.26s-.07-.02-.07-.07V9.76l-2.08,7.33s-.02,.03-.07,.03c-.07,0-.1-.01-.1-.03l-2.08-7.33v10.36s-.02,.07-.07,.07h-2.26s-.07-.02-.07-.07V1.01c0-.07,.02-.1,.07-.1h2.26l.07,.07,2.19,7.57c.35-1.27,.7-2.54,1.06-3.79,.36-1.25,.72-2.51,1.09-3.79l.07-.07h2.26c.07,0,.1,.03,.1,.1V20.12Zm2.15-13.34h1.74v1.42c0,.09,0,.17,.02,.24,.01,.07,.02,.15,.02,.24h-1.77v-1.91Zm1.01,8.27h-1.01v-2.15h2.05c.05,.37,.1,.74,.16,1.1,.06,.36,.11,.71,.16,1.06h-1.35Zm8.48-6.86c0,.83-.03,1.79-.1,2.88s-.19,2.19-.36,3.31c-.17,1.12-.41,2.19-.7,3.21-.29,1.02-.65,1.87-1.09,2.57,0,.02-.01,.03-.03,.03h-2.29l-.03-.03c-.46-.69-.84-1.54-1.13-2.55-.29-1.01-.52-2.06-.69-3.16-.17-1.1-.3-2.19-.36-3.28-.07-1.09-.1-2.05-.1-2.88V.94s.02-.07,.07-.07h2.29s.07,.02,.07,.07v3.68c0,.97,0,1.99,.02,3.04,.01,1.05,.05,2.12,.1,3.2,.06,1.08,.16,2.14,.3,3.2,.14,1.05,.34,2.04,.59,2.97,.28-1.04,.49-2.14,.64-3.3,.15-1.16,.25-2.33,.31-3.51,.06-1.18,.09-2.35,.1-3.51,.01-1.16,.02-2.27,.02-3.34V.94s.03-.07,.1-.07h2.22s.07,.02,.07,.07v7.25Zm4,6.86h-2.22c.05-.37,.09-.74,.14-1.09s.08-.71,.1-1.06h1.98v2.15Zm0-6.36h-1.84v-1.91h1.84v1.91Zm7.61,11.5h-2.19s-.07-.02-.07-.07v-6.5c-.35,0-.69,0-1.04,.02-.35,.01-.69,.02-1.04,.02v6.27c0,.17-.03,.26-.1,.26h-2.22c-.07,0-.1-.06-.1-.17V3.41c0-.63,.17-1.18,.52-1.67,.35-.49,.85-.78,1.49-.87,.32-.02,.67-.03,1.03-.03h.99c.37,0,.72,.03,1.04,.09,.32,.06,.65,.21,.97,.47,.23,.16,.43,.38,.61,.66,.17,.28,.26,.57,.26,.87V19.94s.03,.07,.03,.14-.06,.1-.17,.1Zm2.22-13.41h4.27v1.91h-4.27v-1.91Zm1.08,8.23v.03h-1.08v-2.15h4.27v2.12h-3.2Zm6.48-5.8c-.01,2.73-.02,5.5-.02,8.3,0,.51-.08,.96-.24,1.36-.32,.58-.69,.94-1.09,1.09s-.91,.23-1.51,.23h-1.7s-.04,0-.05,.02c-.01,.01-.04,.02-.09,.02v-2.33c0-.09,.02-.14,.05-.14h2.21V.94s.03-.07,.1-.07h2.22c.09,0,.14,.01,.14,.03,0,2.8,0,5.57-.02,8.31Zm4.16,5.8h-2.06v-2.12h2.06v2.12Zm0-6.32h-1.99v-1.91h1.99v1.91Zm.9,3.7c.04-1.72,.69-3.24,1.79-4.52,2.62-3.06,5.95-4.49,9.99-4.01,1.83,.22,3.4,1.03,4.52,2.56,.06,.08,.11,.17,.2,.3-.92,.08-1.8,.16-2.67,.24-2.49,.25-4.43,1.43-5.71,3.58-.7,1.17-1.58,2.12-2.84,2.69-.62,.28-1.28,.43-1.96,.49-1.04,.09-2.08,.19-3.19,.29-.05-.55-.14-1.08-.13-1.61Zm16.42,.63c-1.29,2.32-3.28,3.82-5.73,4.75-1.53,.58-3.11,.82-4.74,.64-1.85-.21-3.48-.87-4.71-2.34-.14-.17-.26-.36-.42-.57,.51-.05,.98-.09,1.44-.13,.91-.09,1.83-.12,2.71-.39,1.84-.56,3.28-1.65,4.25-3.32,.69-1.19,1.6-2.13,2.87-2.69,.81-.36,1.68-.46,2.55-.53,.76-.06,1.52-.13,2.28-.21,.19-.02,.25,.03,.29,.21,.34,1.63,0,3.15-.79,4.58Zm3.42,2.03h-.1v-.03h-1.27v-2.12h1.37v2.15Zm0-6.36h-1.37v-1.91h1.37v1.91Zm8.27,11.5h-2.22l-.1-.03-2.61-8.06-.07,.14v7.89s-.02,.07-.07,.07h-2.29s-.07-.02-.07-.07V.94c0-.07,.02-.1,.07-.1h2.29s.07,.03,.07,.1V7.68l2.08-6.78,.1-.07h2.26s.07,.03,.07,.1c-.44,1.53-.85,2.93-1.22,4.2-.16,.53-.32,1.07-.47,1.6-.15,.53-.29,1.01-.42,1.44-.13,.43-.23,.78-.31,1.06-.08,.28-.13,.45-.16,.52,.02,.14,.12,.49,.3,1.04,.17,.56,.38,1.22,.61,1.98,.23,.76,.48,1.57,.75,2.41,.27,.85,.51,1.63,.73,2.36,.22,.73,.47,1.58,.75,2.55,0,.05-.02,.07-.07,.07Zm3.79-5.14h-3.51c-.12-.39-.23-.77-.33-1.13-.1-.36-.21-.7-.33-1.03h4.17v2.15Zm0-6.36h-3.68c.09-.3,.18-.61,.26-.94,.08-.32,.17-.65,.26-.97h3.16v1.91Zm7.61,11.5h-2.19s-.07-.02-.07-.07v-6.5c-.35,0-.69,0-1.04,.02-.35,.01-.69,.02-1.04,.02v6.27c0,.17-.03,.26-.1,.26h-2.22c-.07,0-.1-.06-.1-.17V3.41c0-.63,.17-1.18,.52-1.67,.35-.49,.85-.78,1.49-.87,.32-.02,.67-.03,1.03-.03h.99c.37,0,.72,.03,1.04,.09,.32,.06,.65,.21,.97,.47,.23,.16,.43,.38,.61,.66,.17,.28,.26,.57,.26,.87V19.94s.03,.07,.03,.14-.06,.1-.17,.1Zm4.38-5.14h-2.15v-2.15h2.15v2.15Zm0-6.36h-2.15v-1.91h2.15v1.91Zm6.98-5.49s-.02,.07-.07,.07h-3.65v6.05h3.09s.07,.02,.07,.07v2.29s-.02,.07-.07,.07h-3.09v8.34c0,.07-.02,.1-.07,.1h-2.29s-.07-.03-.07-.1V.94s.02-.07,.07-.07h6.01s.07,.02,.07,.07V3.2Z"/><path class="cls-1" d="M150,6.78V2.57h-1.95c-.12-.14-.24-.28-.36-.42-.13-.14-.25-.27-.37-.38-.05-.14-.09-.22-.14-.24-.16-.3-.39-.57-.69-.8-.39-.3-.79-.5-1.2-.59-.41-.09-.85-.14-1.34-.14h-1.08c-.37,0-.72,.01-1.04,.03-.51,.07-.98,.26-1.41,.57s-.76,.68-.99,1.09c-.07,.14-.12,.28-.16,.42-.03,.14-.08,.29-.12,.45h-1.11V6.78h1.04v1.91h-1.04v4.2h1.04v2.15h-1.04v4.2h1.04v.76c0,.21,.02,.4,.07,.57,.05,.17,.17,.3,.38,.37l1.18,1.39c.16,.16,.39,.24,.69,.24h2.22c.39,0,.63-.12,.71-.35s.12-.51,.12-.83l.76,.94c.16,.16,.38,.24,.66,.24,.3,0,.59,0,.88,.02s.58,.02,.88,.02c.25,0,.54-.05,.86-.16,.32-.1,.48-.32,.48-.64,0-.09-.02-.21-.07-.35v-2.22h1.08v-4.2h-1.08v-2.15h1.08v-4.2h-1.08v-1.91h1.08Zm-3.3,13.41h-2.19s-.07-.02-.07-.07v-6.5c-.35,0-.69,0-1.04,.02-.35,.01-.69,.02-1.04,.02v6.27c0,.17-.03,.26-.1,.26h-2.22c-.07,0-.1-.06-.1-.17V3.41c0-.63,.17-1.18,.52-1.67,.35-.49,.85-.78,1.49-.87,.32-.02,.67-.03,1.03-.03h.99c.37,0,.72,.03,1.04,.09,.32,.06,.65,.21,.97,.47,.23,.16,.43,.38,.61,.66,.17,.28,.26,.57,.26,.87V19.94s.03,.07,.03,.14-.06,.1-.17,.1Z"/><rect class="cls-1" x="142.36" y="3.27" width="2.08" height="7.92"/></g></g></svg>