<?xml version="1.0" encoding="UTF-8"?><svg id="Layer_2" xmlns="http://www.w3.org/2000/svg" viewBox="0 0 150 121.38"><defs><style>.cls-1,.cls-2{fill:#640d0d;}.cls-2{font-family:Superclarendon-Bold, Superclarendon;font-size:10px;letter-spacing:-.03em;}</style></defs><g id="Layer_1-2"><g><g><path class="cls-1" d="M91.43,109.33l2.5,8.33h6.61l-2.71-9.03c-2.06,.31-4.21,.54-6.41,.71h0Z"/><path class="cls-1" d="M50.73,117.65h6.61l2.5-8.33c-2.2-.16-4.34-.39-6.4-.71l-2.72,9.03h0Z"/></g><path class="cls-1" d="M48.29,23.97c.34-2.16,1.55-6.5,5.98-9.62,3.91-2.75,13.97-2.81,21.32-2.81h.12c7.36,0,17.42,.06,21.32,2.81,4.43,3.12,5.64,7.46,5.98,9.62-4.46,.36-8.46,3.28-10.41,7.51H58.71c-1.94-4.41-5.76-7.19-10.42-7.51h0Z"/><path class="cls-1" d="M75.66,78.46c-15.69-.02-19.87-7.1-23.6-14.15l-3.52-1.2c.27,6.67,.88,12.29,1.86,15.53,3.21,5.67,19.42,5.33,25.24,5.32,5.82,0,22.03,.35,25.24-5.32,.98-3.24,1.58-8.87,1.86-15.53l-3.52,1.2c-3.73,7.05-7.9,14.12-23.56,14.15h0Z"/><path class="cls-1" d="M101.58,27.72c-2.95,.87-5.42,3.29-6.38,6.52-4.79,16.11-7.63,23.85-19.56,23.85s-14.76-7.74-19.56-23.85c-1.03-3.46-3.35-5.77-6.38-6.56-1.04,9.55-1.51,21.53-1.28,31.78l6.02,2.05,.32,.6c3.66,6.93,6.81,12.91,20.89,12.93,14.04-.02,17.2-6,20.85-12.92l.32-.6,6.02-2.05c.23-10.23-.24-22.19-1.27-31.74Zm-32.26,40.64c-.92,.93-2.07,1.29-3.34,1.32-1.12,.03-2.19-.23-3.19-.71-1.61-.78-2.88-1.91-3.63-3.57-.46-1.02-.59-2.08-.27-3.17,.04-.12,.08-.15,.21-.13,.51,.1,1.02,.19,1.54,.27,.59,.1,1.17,.22,1.71,.51,.83,.46,1.39,1.15,1.8,2,.56,1.19,1.48,2.02,2.7,2.51,.59,.24,1.21,.31,1.83,.42,.31,.06,.63,.11,.98,.17-.12,.14-.22,.26-.32,.37Zm1.06-2.43c-.02,.36-.12,.72-.18,1.09-.75-.13-1.45-.26-2.16-.38-.46-.08-.9-.22-1.3-.45-.83-.46-1.37-1.16-1.78-2-.75-1.54-2-2.45-3.68-2.77-.59-.11-1.19-.21-1.81-.32,.07-.08,.11-.14,.15-.19,.85-.98,1.97-1.44,3.23-1.48,2.78-.09,4.96,1.08,6.57,3.32,.67,.94,1.03,2.01,.96,3.18Zm10.53,0c-.07-1.18,.28-2.25,.96-3.18,1.61-2.24,3.79-3.4,6.57-3.32,1.26,.04,2.38,.5,3.23,1.48,.05,.05,.09,.11,.15,.19-.62,.11-1.22,.21-1.81,.32-1.68,.32-2.93,1.23-3.68,2.77-.41,.84-.95,1.54-1.78,2-.41,.23-.84,.37-1.3,.45-.7,.12-1.4,.25-2.16,.38-.06-.37-.16-.73-.18-1.09Zm11.22-.53c-.74,1.66-2.01,2.8-3.63,3.57-1.01,.48-2.07,.74-3.19,.71-1.27-.03-2.42-.39-3.34-1.32-.11-.11-.2-.23-.32-.37,.35-.06,.66-.12,.98-.17,.61-.11,1.24-.19,1.83-.42,1.22-.49,2.14-1.32,2.7-2.51,.4-.85,.97-1.54,1.8-2,.53-.3,1.12-.41,1.71-.51,.51-.09,1.03-.17,1.54-.27,.13-.02,.17,0,.21,.13,.33,1.09,.19,2.15-.27,3.17Z"/><g><path class="cls-1" d="M89.32,37.19c-1.5,.14-2.94,.25-4.37,.4-4.07,.41-7.23,2.33-9.34,5.85-1.15,1.92-2.58,3.47-4.64,4.39-1.02,.46-2.09,.71-3.2,.8-1.7,.14-3.39,.31-5.21,.47-.07-.9-.22-1.77-.2-2.64,.06-2.81,1.13-5.29,2.93-7.39,4.29-5,9.73-7.33,16.33-6.55,2.99,.35,5.55,1.68,7.39,4.18,.1,.13,.19,.28,.32,.48Z"/><path class="cls-1" d="M63.68,51.54c.84-.08,1.6-.14,2.36-.22,1.49-.14,2.99-.19,4.44-.63,3.01-.92,5.36-2.7,6.94-5.43,1.13-1.95,2.61-3.47,4.69-4.4,1.33-.59,2.74-.75,4.17-.87,1.24-.1,2.48-.21,3.72-.34,.31-.03,.41,.06,.47,.35,.55,2.67,0,5.15-1.29,7.49-2.11,3.8-5.36,6.25-9.36,7.77-2.5,.95-5.08,1.34-7.75,1.04-3.02-.34-5.69-1.43-7.69-3.82-.23-.28-.43-.58-.69-.94Z"/></g><path class="cls-1" d="M66.3,3.42h.06l2.72,6.63c1.2-.03,2.43-.05,3.68-.06l-2.69-6.56h11.2l-2.71,6.56c1.25,.01,2.48,.03,3.68,.07l2.74-6.63h.05c1.91,0,3.46,1.55,3.46,3.46h3.42c0-3.8-3.09-6.89-6.89-6.89h-18.71c-3.8,0-6.89,3.09-6.89,6.89h3.43c0-1.91,1.55-3.46,3.46-3.46h0Z"/><g><rect class="cls-1" x="15.57" y="88.13" width="2.08" height="7.78"/><polygon class="cls-1" points="13.93 107.03 13.93 106.99 13.9 106.99 13.93 107.03"/><path class="cls-1" d="M32.78,87.02c-.13-.14-.25-.27-.36-.38-.05-.14-.09-.22-.14-.24-.16-.3-.39-.57-.69-.8-.4-.3-.79-.5-1.2-.59-.41-.09-.85-.14-1.34-.14h-1.08c-.37,0-.72,.01-1.04,.03-.51,.07-.98,.26-1.41,.57-.43,.31-.76,.68-.99,1.09-.07,.14-.12,.28-.16,.42-.03,.14-.08,.29-.12,.45h-3.02c-.21-.23-.45-.51-.73-.83-.07-.07-.13-.15-.17-.24-.05-.09-.09-.17-.14-.24-.25-.35-.6-.64-1.04-.87-.44-.23-.88-.35-1.32-.35h-4.57c-.35,0-.59,.09-.73,.28-.14,.19-.21,.44-.21,.76v1.49h-1.84c0-.09,0-.19-.02-.3-.01-.1-.05-.2-.12-.3l-1.18-1.39c-.05-.21-.16-.36-.33-.45-.17-.09-.36-.14-.57-.14H1.53c-.6,0-.9,.3-.9,.9v1.67H0v4.2H2.85v1.91H0v4.2H2.85v2.15H0v4.2H2.85v.83c0,.19,.03,.35,.09,.5,.06,.15,.19,.26,.4,.33l1.18,1.39c.14,.19,.36,.28,.66,.28h2.26c.56,0,.83-.28,.83-.83v-2.5h4.07v.8c0,.19,.06,.35,.17,.5,.12,.15,.24,.27,.38,.36l1.07,1.22,.03,.07c.09,.09,.2,.18,.31,.26,.12,.08,.23,.12,.35,.12h2.11c.14,0,.29-.02,.45-.05,.16-.03,.29-.12,.38-.26l.03,.1v-.03c.05,.12,.19,.19,.43,.21,.24,.02,.41,.03,.5,.03h2.15c.23,0,.44-.06,.64-.17s.29-.3,.29-.56c0-.09,0-.18,.02-.28,.01-.09-.02-.15-.09-.17l-.07-.03c-.09-.42-.18-.8-.26-1.15-.08-.35-.16-.67-.22-.97h3.15v.76c0,.21,.02,.4,.07,.57,.05,.17,.17,.3,.38,.37l1.18,1.39c.16,.16,.39,.24,.7,.24h2.22c.39,0,.63-.12,.71-.35,.08-.23,.12-.51,.12-.83l.76,.94c.16,.16,.38,.24,.66,.24,.3,0,.59,0,.88,.02s.58,.02,.88,.02c.25,0,.54-.05,.86-.16,.32-.1,.48-.32,.48-.64,0-.09-.02-.21-.07-.35v-2.22h1.08v-4.2h-1.08v-2.15h1.08v-4.2h-1.08v-1.91h1.08v-4.2h-1.95c-.12-.14-.24-.28-.36-.42Zm-26.67,1.11v16.82c0,.07-.02,.1-.07,.1H3.79c-.07,0-.1-.03-.1-.1v-16.82H1.53s-.07-.03-.07-.1v-2.26s.02-.07,.07-.07h6.74c.07,0,.1,.02,.1,.07v2.26c0,.07-.03,.1-.1,.1h-2.15Zm6.22,11.78h-4.07v-2.15h4.07v2.15Zm0-6.36h-4.07v-1.91h4.07v1.91Zm7.75,1.95v.45c0,.14-.01,.28-.03,.42-.09,.53-.35,.99-.78,1.37-.43,.38-.91,.6-1.44,.64,0,.07,.09,.43,.26,1.09,.17,.66,.36,1.38,.56,2.17,.2,.79,.38,1.5,.54,2.14s.24,.97,.24,.99c.05,.05,.07,.1,.07,.17s-.06,.1-.17,.1h-2.15c-.09,0-.14-.02-.14-.07,0-.02,0-.04,.02-.05,.01-.01,.02-.03,.02-.05-.09-.23-.16-.45-.19-.64-.03-.2-.08-.41-.12-.64-.14-.69-.3-1.38-.49-2.05-.19-.67-.42-1.52-.7-2.54v5.7s.01,.07,.03,.07v.14c0,.09-.08,.14-.24,.14h-2.09l-.1-.03v-19.08c0-.14,.03-.21,.1-.21h4.56c.3,0,.61,.08,.93,.24,.32,.16,.58,.37,.76,.62,.23,.28,.38,.57,.45,.87,.07,.3,.1,.63,.1,.97v7.05Zm4.1,4.41h-2.94c.48-.46,.77-1.07,.89-1.81,.05-.07,.07-.18,.07-.35h1.98v2.15Zm0-6.36h-2.02v-1.91h2.02v1.91Zm7.61,11.5h-2.19s-.07-.02-.07-.07v-6.5c-.35,0-.7,0-1.04,.02-.35,.01-.7,.02-1.04,.02v6.27c0,.17-.03,.26-.1,.26h-2.22c-.07,0-.1-.06-.1-.17v-16.61c0-.63,.17-1.18,.52-1.67,.35-.49,.85-.78,1.49-.87,.32-.02,.67-.03,1.02-.03h.99c.37,0,.72,.03,1.04,.09,.32,.06,.65,.21,.97,.47,.23,.16,.43,.38,.61,.66s.26,.57,.26,.87v17.03s.03,.07,.03,.14-.06,.1-.17,.1Z"/><rect class="cls-1" x="27.45" y="88.13" width="2.08" height="7.92"/><rect class="cls-1" x="64.94" y="88.13" width="2.08" height="7.92"/><polygon class="cls-1" points="110.7 107.03 110.7 106.99 110.67 106.99 110.7 107.03"/><rect class="cls-1" x="119.28" y="88.13" width="2.08" height="7.92"/><path class="cls-1" d="M136.97,86.88l-1.15-1.39c-.14-.39-.44-.59-.9-.59h-6.01c-.6,0-.9,.3-.9,.9v1.63h-3.02c-.12-.14-.24-.28-.36-.42-.13-.14-.25-.27-.37-.38-.05-.14-.09-.22-.14-.24-.16-.3-.39-.57-.69-.8-.39-.3-.79-.5-1.2-.59-.41-.09-.85-.14-1.34-.14h-1.08c-.37,0-.72,.01-1.04,.03-.51,.07-.98,.26-1.41,.57s-.76,.68-.99,1.09c-.07,.14-.12,.28-.16,.42-.03,.14-.08,.29-.12,.45h-2.19c0-.18-.08-.36-.24-.52l-1.15-1.36c-.07-.18-.18-.35-.33-.49-.15-.14-.32-.21-.5-.21h-2.26c-.16,0-.33,.08-.5,.23s-.3,.3-.36,.43l-.03-.03-.14,.42-.32-.42c-.14-.42-.44-.63-.91-.63h-2.28c-.61,0-.91,.31-.91,.94v1.63h-22.79c-.05-.3-.08-.49-.1-.56-.23-.35-.43-.64-.59-.89-.16-.24-.34-.45-.53-.61s-.43-.28-.69-.36-.6-.12-1.02-.12h-1.8c-.3,0-.48,.09-.55,.26-.07,.17-.1,.39-.1,.64v1.63h-5.14c-.12-.14-.24-.28-.36-.42-.13-.14-.25-.27-.37-.38-.05-.14-.09-.22-.14-.24-.16-.3-.39-.57-.69-.8-.39-.3-.79-.5-1.2-.59-.41-.09-.85-.14-1.34-.14h-1.08c-.37,0-.72,.01-1.04,.03-.51,.07-.98,.26-1.41,.57s-.76,.68-.99,1.09c-.07,.14-.12,.28-.16,.42-.03,.14-.08,.29-.12,.45h-1.91c0-.25-.09-.47-.28-.66l-1.1-1.29c-.05-.23-.15-.39-.31-.47-.16-.08-.35-.12-.55-.12h-2.21c-.39,0-.64,.1-.76,.31-.12,.21-.17,.48-.17,.8-.09-.07-.17-.15-.23-.23s-.12-.17-.19-.26c-.14-.42-.44-.62-.9-.62h-2.29c-.6,0-.9,.3-.9,.9v1.63h-1.74c0-.25-.08-.46-.24-.63l-1.15-1.29c-.05-.21-.15-.36-.31-.45-.16-.09-.35-.14-.56-.14h-2.9c-.21,.65-.41,1.3-.61,1.95-.2,.65-.39,1.3-.58,1.95l-.42-1.46-1.35-1.67c-.02-.14-.14-.3-.35-.49-.21-.19-.39-.28-.55-.28h-2.24c-.6,0-.9,.31-.9,.94v1.56h-.94v4.2h.94v1.91h-.94v4.2h.94v2.15h-.94v4.2h.94v.9c0,.19,.03,.35,.09,.5,.06,.15,.18,.26,.36,.33l1.21,1.36c.14,.16,.36,.24,.66,.24h2.24c.55,0,.83-.28,.83-.83v-3.34c.07,.07,.17,.19,.3,.36,.13,.17,.29,.33,.47,.47h0l.03,.03h0s0,0,0,0h-.03c.19,.19,.37,.28,.56,.28,0,.21,0,.48-.02,.8-.01,.32,.11,.54,.37,.66l1.26,1.39c.09,.09,.21,.15,.35,.16,.14,.01,.26,.02,.35,.02h2.31c.56,0,.84-.28,.84-.83v-2.5h3.47c.07,.21,.16,.41,.26,.61,.1,.2,.2,.4,.3,.61,.05,.14,.09,.26,.12,.35,.03,.09,.13,.16,.3,.21l1.11,1.29c.18,.19,.4,.28,.66,.28h2.36c.21,0,.39-.03,.54-.09,.15-.06,.25-.21,.3-.47,.42-.76,.76-1.69,1.04-2.78h3.02v.76c0,.21,.02,.4,.07,.57,.05,.17,.17,.3,.38,.37l1.18,1.39c.16,.16,.39,.24,.69,.24h2.22c.39,0,.63-.12,.71-.35s.12-.51,.12-.83l.76,.94c.16,.16,.38,.24,.66,.24,.3,0,.59,0,.88,.02s.58,.02,.88,.02c.25,0,.54-.05,.86-.16,.32-.1,.48-.32,.48-.64,0-.09-.02-.21-.07-.35v-2.22h1.08v-.02h.93v.84c0,.16,.02,.39,.05,.68s.17,.44,.4,.44c.28,.33,.52,.58,.73,.75s.42,.31,.64,.42c.22,.11,.47,.17,.74,.19,.28,.02,.63,.03,1.07,.03,.37,0,.74-.01,1.12-.03,.38-.02,.74-.1,1.09-.24,.62-.28,1.07-.69,1.33-1.24s.41-1.16,.43-1.83h21.89v.02h.94v.87c0,.19,.03,.35,.09,.5,.06,.15,.18,.26,.37,.33l1.19,1.39c.14,.16,.36,.24,.66,.24h2.27c.28,0,.48-.06,.59-.17,.12-.12,.19-.27,.23-.45,.03-.19,.05-.39,.03-.61-.01-.22-.02-.43-.02-.64,.05,.05,.09,.08,.14,.1,.05,.02,.08,.06,.1,.1l1.04,1.22-.07-.1,.1,.1c.07,.09,.17,.19,.3,.3,.13,.1,.26,.16,.4,.16h2.22c.23,0,.43-.1,.59-.3s.24-.4,.24-.61c0-.05-.06-.3-.19-.75s-.28-1.01-.47-1.69h2.22v.76c0,.21,.02,.4,.07,.57,.05,.17,.17,.3,.38,.37l1.18,1.39c.16,.16,.39,.24,.69,.24h2.22c.39,0,.63-.12,.71-.35s.12-.51,.12-.83l.76,.94c.16,.16,.38,.24,.66,.24,.3,0,.59,0,.88,.02s.58,.02,.88,.02c.25,0,.54-.05,.86-.16,.32-.1,.48-.32,.48-.64,0-.09-.02-.21-.07-.35v-2.22h2.15v.87c0,.19,.03,.35,.09,.5,.06,.15,.18,.26,.36,.33l1.18,1.39c.14,.16,.36,.24,.66,.24h2.29c.56,0,.83-.28,.83-.83v-2.5h4.62v-4.2h-4.62v-.9h2.33c.56,0,.83-.28,.83-.83v-.42h1.46v-4.2h-3.02c-.21-.16-.46-.24-.76-.23-.3,.01-.58,.02-.83,.02v-1.7h4.62v-4.2h-.9c0-.23-.06-.42-.17-.56Zm-90.93,18.1s-.03,.07-.1,.07h-2.26s-.07-.02-.07-.07v-10.36l-2.08,7.33s-.02,.03-.07,.03c-.07,0-.1-.01-.1-.03l-2.08-7.33v10.36s-.02,.07-.07,.07h-2.26s-.07-.02-.07-.07v-19.11c0-.07,.02-.1,.07-.1h2.26l.07,.07,2.19,7.57c.35-1.27,.7-2.54,1.06-3.79,.36-1.25,.72-2.51,1.09-3.79l.07-.07h2.26c.07,0,.1,.03,.1,.1v19.11Zm2.15-13.34h1.74v1.42c0,.09,0,.17,.02,.24,.01,.07,.02,.15,.02,.24h-1.77v-1.91Zm1.01,8.27h-1.01v-2.15h2.05c.05,.37,.1,.74,.16,1.1,.06,.36,.11,.71,.16,1.06h-1.35Zm8.48-6.86c0,.83-.03,1.79-.1,2.88s-.19,2.19-.36,3.31c-.17,1.12-.41,2.19-.7,3.21-.29,1.02-.65,1.87-1.09,2.57,0,.02-.01,.03-.03,.03h-2.29l-.03-.03c-.46-.69-.84-1.54-1.13-2.55-.29-1.01-.52-2.06-.69-3.16-.17-1.1-.3-2.19-.36-3.28-.07-1.09-.1-2.05-.1-2.88v-7.35s.02-.07,.07-.07h2.29s.07,.02,.07,.07v3.68c0,.97,0,1.99,.02,3.04,.01,1.05,.05,2.12,.1,3.2,.06,1.08,.16,2.14,.3,3.2,.14,1.05,.34,2.04,.59,2.97,.28-1.04,.49-2.14,.64-3.3,.15-1.16,.25-2.33,.31-3.51,.06-1.18,.09-2.35,.1-3.51,.01-1.16,.02-2.27,.02-3.34v-2.43s.03-.07,.1-.07h2.22s.07,.02,.07,.07v7.25Zm4,6.86h-2.22c.05-.37,.09-.74,.14-1.09s.08-.71,.1-1.06h1.98v2.15Zm0-6.36h-1.84v-1.91h1.84v1.91Zm7.61,11.5h-2.19s-.07-.02-.07-.07v-6.5c-.35,0-.69,0-1.04,.02-.35,.01-.69,.02-1.04,.02v6.27c0,.17-.03,.26-.1,.26h-2.22c-.07,0-.1-.06-.1-.17v-16.61c0-.63,.17-1.18,.52-1.67,.35-.49,.85-.78,1.49-.87,.32-.02,.67-.03,1.03-.03h.99c.37,0,.72,.03,1.04,.09,.32,.06,.65,.21,.97,.47,.23,.16,.43,.38,.61,.66,.17,.28,.26,.57,.26,.87v17.03s.03,.07,.03,.14-.06,.1-.17,.1Zm2.22-13.41h4.27v1.91h-4.27v-1.91Zm1.08,8.23v.03h-1.08v-2.15h4.27v2.12h-3.2Zm6.48-5.8c-.01,2.73-.02,5.5-.02,8.3,0,.51-.08,.96-.24,1.36-.32,.58-.69,.94-1.09,1.09s-.91,.23-1.51,.23h-1.7s-.04,0-.05,.02c-.01,.01-.04,.02-.09,.02v-2.33c0-.09,.02-.14,.05-.14h2.21v-16.82s.03-.07,.1-.07h2.22c.09,0,.14,.01,.14,.03,0,2.8,0,5.57-.02,8.31Zm4.16,5.8h-2.06v-2.12h2.06v2.12Zm0-6.32h-1.99v-1.91h1.99v1.91Zm.9,3.7c.04-1.72,.69-3.24,1.79-4.52,2.62-3.06,5.95-4.49,9.99-4.01,1.83,.22,3.4,1.03,4.52,2.56,.06,.08,.11,.17,.2,.3-.92,.08-1.8,.16-2.67,.24-2.49,.25-4.43,1.43-5.71,3.58-.7,1.17-1.58,2.12-2.84,2.69-.62,.28-1.28,.43-1.96,.49-1.04,.09-2.08,.19-3.19,.29-.05-.55-.14-1.08-.13-1.61Zm16.42,.63c-1.29,2.32-3.28,3.82-5.73,4.75-1.53,.58-3.11,.82-4.74,.64-1.85-.21-3.48-.87-4.71-2.34-.14-.17-.26-.36-.42-.57,.51-.05,.98-.09,1.44-.13,.91-.09,1.83-.12,2.71-.39,1.84-.56,3.28-1.65,4.25-3.32,.69-1.19,1.6-2.13,2.87-2.69,.81-.36,1.68-.46,2.55-.53,.76-.06,1.52-.13,2.28-.21,.19-.02,.25,.03,.29,.21,.34,1.63,0,3.15-.79,4.58Zm3.42,2.03h-.1v-.03h-1.27v-2.12h1.37v2.15Zm0-6.36h-1.37v-1.91h1.37v1.91Zm8.27,11.5h-2.22l-.1-.03-2.61-8.06-.07,.14v7.89s-.02,.07-.07,.07h-2.29s-.07-.02-.07-.07v-19.18c0-.07,.02-.1,.07-.1h2.29s.07,.03,.07,.1v6.74l2.08-6.78,.1-.07h2.26s.07,.03,.07,.1c-.44,1.53-.85,2.93-1.22,4.2-.16,.53-.32,1.07-.47,1.6-.15,.53-.29,1.01-.42,1.44-.13,.43-.23,.78-.31,1.06-.08,.28-.13,.45-.16,.52,.02,.14,.12,.49,.3,1.04,.17,.56,.38,1.22,.61,1.98,.23,.76,.48,1.57,.75,2.41,.27,.85,.51,1.63,.73,2.36,.22,.73,.47,1.58,.75,2.55,0,.05-.02,.07-.07,.07Zm3.79-5.14h-3.51c-.12-.39-.23-.77-.33-1.13-.1-.36-.21-.7-.33-1.03h4.17v2.15Zm0-6.36h-3.68c.09-.3,.18-.61,.26-.94,.08-.32,.17-.65,.26-.97h3.16v1.91Zm7.61,11.5h-2.19s-.07-.02-.07-.07v-6.5c-.35,0-.69,0-1.04,.02-.35,.01-.69,.02-1.04,.02v6.27c0,.17-.03,.26-.1,.26h-2.22c-.07,0-.1-.06-.1-.17v-16.61c0-.63,.17-1.18,.52-1.67,.35-.49,.85-.78,1.49-.87,.32-.02,.67-.03,1.03-.03h.99c.37,0,.72,.03,1.04,.09,.32,.06,.65,.21,.97,.47,.23,.16,.43,.38,.61,.66,.17,.28,.26,.57,.26,.87v17.03s.03,.07,.03,.14-.06,.1-.17,.1Zm4.38-5.14h-2.15v-2.15h2.15v2.15Zm0-6.36h-2.15v-1.91h2.15v1.91Zm6.98-5.49s-.02,.07-.07,.07h-3.65v6.05h3.09s.07,.02,.07,.07v2.29s-.02,.07-.07,.07h-3.09v8.34c0,.07-.02,.1-.07,.1h-2.29s-.07-.03-.07-.1v-19.15s.02-.07,.07-.07h6.01s.07,.02,.07,.07v2.26Z"/><path class="cls-1" d="M150,91.64v-4.2h-1.95c-.12-.14-.24-.28-.36-.42-.13-.14-.25-.27-.37-.38-.05-.14-.09-.22-.14-.24-.16-.3-.39-.57-.69-.8-.39-.3-.79-.5-1.2-.59-.41-.09-.85-.14-1.34-.14h-1.08c-.37,0-.72,.01-1.04,.03-.51,.07-.98,.26-1.41,.57s-.76,.68-.99,1.09c-.07,.14-.12,.28-.16,.42-.03,.14-.08,.29-.12,.45h-1.11v4.2h1.04v1.91h-1.04v4.2h1.04v2.15h-1.04v4.2h1.04v.76c0,.21,.02,.4,.07,.57,.05,.17,.17,.3,.38,.37l1.18,1.39c.16,.16,.39,.24,.69,.24h2.22c.39,0,.63-.12,.71-.35s.12-.51,.12-.83l.76,.94c.16,.16,.38,.24,.66,.24,.3,0,.59,0,.88,.02s.58,.02,.88,.02c.25,0,.54-.05,.86-.16,.32-.1,.48-.32,.48-.64,0-.09-.02-.21-.07-.35v-2.22h1.08v-4.2h-1.08v-2.15h1.08v-4.2h-1.08v-1.91h1.08Zm-3.3,13.41h-2.19s-.07-.02-.07-.07v-6.5c-.35,0-.69,0-1.04,.02-.35,.01-.69,.02-1.04,.02v6.27c0,.17-.03,.26-.1,.26h-2.22c-.07,0-.1-.06-.1-.17v-16.61c0-.63,.17-1.18,.52-1.67,.35-.49,.85-.78,1.49-.87,.32-.02,.67-.03,1.03-.03h.99c.37,0,.72,.03,1.04,.09,.32,.06,.65,.21,.97,.47,.23,.16,.43,.38,.61,.66,.17,.28,.26,.57,.26,.87v17.03s.03,.07,.03,.14-.06,.1-.17,.1Z"/><rect class="cls-1" x="142.36" y="88.13" width="2.08" height="7.92"/></g><text class="cls-2" transform="translate(64.17 116.65)"><tspan x="0" y="0">2017</tspan></text></g></g></svg>